<?xml version="1.0" encoding="utf-8"?>
<!-- Generator: Adobe Illustrator 22.1.0, SVG Export Plug-In . SVG Version: 6.00 Build 0)  -->
<svg version="1.1" id="Layer_1" xmlns="http://www.w3.org/2000/svg" xmlns:xlink="http://www.w3.org/1999/xlink" x="0px" y="0px"
	 viewBox="0 0 117.7 117.7" style="enable-background:new 0 0 117.7 117.7;" xml:space="preserve">
<style type="text/css">
	.st0{clip-path:url(#SVGID_3_);}
	.st1{fill:#FFFFFF;}
	.st2{fill-rule:evenodd;clip-rule:evenodd;fill:#1D99EE;}
	.st3{fill:#1677F0;}
	.st4{fill:url(#SVGID_6_);}
	.st5{fill-rule:evenodd;clip-rule:evenodd;fill:#FFFFFF;}
	.st6{fill:#27CD44;}
	.st7{fill:url(#SVGID_7_);}
	.st8{fill:#1D99EE;}
	.st9{fill-rule:evenodd;clip-rule:evenodd;fill:#27CD44;}
	.st10{fill:url(#SVGID_8_);}
	.st11{fill:url(#SVGID_9_);}
	.st12{fill:url(#SVGID_10_);}
</style>
<g>
	<path class="st3" d="M102.4,117.7H15.3c-8.4,0-15.3-6.8-15.3-15.3V15.3C0,6.8,6.8,0,15.3,0h87.1c8.4,0,15.3,6.8,15.3,15.3v87.1
		C117.7,110.9,110.9,117.7,102.4,117.7z"/>
	<path class="st1" d="M81,64.4l2.6-17.2H67.1V36.1c0-4.7,2.3-9.3,9.7-9.3h7.5V12.1c0,0-6.8-1.2-13.3-1.2c-13.6,0-22.5,8.2-22.5,23.1
		v13.1H33.4v17.2h15.1V106c3,0.5,6.1,0.7,9.3,0.7c3.2,0,6.3-0.2,9.3-0.7V64.4H81z"/>
</g>
</svg>
