<?xml version="1.0" encoding="utf-8"?>
<!-- Generator: Adobe Illustrator 22.1.0, SVG Export Plug-In . SVG Version: 6.00 Build 0)  -->
<svg version="1.1" id="Layer_1" xmlns="http://www.w3.org/2000/svg" xmlns:xlink="http://www.w3.org/1999/xlink" x="0px" y="0px"
	 viewBox="0 0 117.7 117.7" style="enable-background:new 0 0 117.7 117.7;" xml:space="preserve">
<style type="text/css">
	.st0{clip-path:url(#SVGID_3_);}
	.st1{fill:#FFFFFF;}
	.st2{fill-rule:evenodd;clip-rule:evenodd;fill:#1D99EE;}
	.st3{fill:#1677F0;}
	.st4{fill:url(#SVGID_6_);}
	.st5{fill-rule:evenodd;clip-rule:evenodd;fill:#FFFFFF;}
	.st6{fill:#27CD44;}
	.st7{fill:url(#SVGID_7_);}
	.st8{fill:#1D99EE;}
	.st9{fill-rule:evenodd;clip-rule:evenodd;fill:#27CD44;}
	.st10{fill:url(#SVGID_8_);}
	.st11{fill:url(#SVGID_9_);}
	.st12{fill:url(#SVGID_10_);}
</style>
<g>
	<path class="st6" d="M102.4,117.7H15.3c-8.4,0-15.3-6.8-15.3-15.3V15.3C0,6.8,6.8,0,15.3,0h87.1c8.4,0,15.3,6.8,15.3,15.3v87.1
		C117.7,110.9,110.9,117.7,102.4,117.7z"/>
	<g>
		<g id="WA_Logo_5_">
			<g>
				<path class="st5" d="M89.3,28.2C81.2,20.1,70.5,15.7,59,15.7c-23.6,0-42.8,19.2-42.8,42.8c0,7.5,2,14.9,5.7,21.4L15.8,102
					l22.7-6c6.3,3.4,13.3,5.2,20.5,5.2h0c0,0,0,0,0,0c23.6,0,42.8-19.2,42.8-42.8C101.9,47.1,97.4,36.3,89.3,28.2z M59,94.1L59,94.1
					c-6.4,0-12.7-1.7-18.1-5l-1.3-0.8l-13.5,3.5l3.6-13.1l-0.8-1.3c-3.6-5.7-5.4-12.2-5.4-18.9c0-19.6,16-35.6,35.6-35.6
					c9.5,0,18.4,3.7,25.2,10.4C90.9,40,94.6,49,94.6,58.5C94.6,78.1,78.6,94.1,59,94.1z M78.6,67.4c-1.1-0.5-6.3-3.1-7.3-3.5
					c-1-0.4-1.7-0.5-2.4,0.5c-0.7,1.1-2.8,3.5-3.4,4.2c-0.6,0.7-1.2,0.8-2.3,0.3c-1.1-0.5-4.5-1.7-8.6-5.3c-3.2-2.8-5.3-6.3-6-7.4
					S48.5,54.6,49,54c0.5-0.5,1.1-1.2,1.6-1.9c0.5-0.6,0.7-1.1,1.1-1.8c0.4-0.7,0.2-1.3-0.1-1.9s-2.4-5.8-3.3-7.9
					c-0.9-2.1-1.8-1.8-2.4-1.8c-0.6,0-1.3,0-2.1,0C43.2,38.7,42,39,41,40c-1,1.1-3.7,3.7-3.7,8.9c0,5.3,3.8,10.4,4.4,11.1
					c0.5,0.7,7.5,11.5,18.3,16.2c2.6,1.1,4.5,1.8,6.1,2.3c2.6,0.8,4.9,0.7,6.7,0.4c2.1-0.3,6.3-2.6,7.2-5.1c0.9-2.5,0.9-4.6,0.6-5.1
					C80.3,68.2,79.6,68,78.6,67.4z"/>
			</g>
		</g>
	</g>
</g>
</svg>
